<?xml version="1.0" encoding="UTF-8" standalone="no"?>
<!-- Created with Inkscape (http://www.inkscape.org/) -->

<svg
   version="1.1"
   id="svg69"
   width="162.61224"
   height="157.71429"
   viewBox="0 0 162.61224 157.71429"
   sodipodi:docname="mdx_logo.png.svg"
   inkscape:version="1.1.2 (0a00cf5339, 2022-02-04)"
   xmlns:inkscape="http://www.inkscape.org/namespaces/inkscape"
   xmlns:sodipodi="http://sodipodi.sourceforge.net/DTD/sodipodi-0.dtd"
   xmlns="http://www.w3.org/2000/svg"
   xmlns:svg="http://www.w3.org/2000/svg">
  <defs
     id="defs73" />
  <sodipodi:namedview
     id="namedview71"
     pagecolor="#ffffff"
     bordercolor="#666666"
     borderopacity="1.0"
     inkscape:pageshadow="2"
     inkscape:pageopacity="0.0"
     inkscape:pagecheckerboard="0"
     showgrid="false"
     inkscape:zoom="5.0471012"
     inkscape:cx="26.946161"
     inkscape:cy="78.857147"
     inkscape:window-width="1920"
     inkscape:window-height="1001"
     inkscape:window-x="0"
     inkscape:window-y="0"
     inkscape:window-maximized="1"
     inkscape:current-layer="g75" />
  <g
     inkscape:groupmode="layer"
     inkscape:label="Image"
     id="g75">
    <path
       style="fill:#000000;stroke-width:0.979592"
       d="M 69.090214,119.6215 C 44.627447,115.97416 26.820184,98.347627 23.317093,74.312937 21.080245,58.965937 26.649909,42.831305 38.209553,31.171312 49.68147,19.599807 65.99652,13.947776 81.432444,16.197585 c 26.509436,3.86379 45.302756,25.290458 45.302756,51.650674 0,27.482999 -20.98331,49.734461 -48.82866,51.779691 -3.232653,0.23745 -7.2,0.23454 -8.816326,-0.007 z m 17.443297,-5.72426 C 107.82034,108.35272 122.50618,89.348175 122.46634,67.39755 122.42976,47.240859 108.97906,28.89955 89.44765,22.373446 81.687676,19.780579 68.563947,19.689287 60.763683,22.173914 l -5.387755,1.716169 6.065028,0.574865 c 11.93327,1.131081 22.536683,8.567419 27.638485,19.383311 2.148108,4.554002 2.541384,6.752078 2.541384,14.204082 0,7.471385 -0.38976,9.638235 -2.554951,14.204082 -9.57935,20.200497 -35.798252,25.694018 -51.985262,10.892209 -2.868188,-2.62274 -6.200608,-6.697448 -7.40538,-9.054904 -1.840399,-3.601234 -2.188837,-3.894879 -2.180134,-1.837305 0.07157,16.922635 16.646636,36.585037 35.14139,41.686997 6.228084,1.71808 17.20504,1.69687 23.897023,-0.0461 z M 67.455479,86.093628 C 68.342527,85.531303 67.534869,85.07113 64.929705,84.654549 59.636115,83.808064 53.59443,79.151776 51.097764,73.994351 43.512956,58.326229 57.088239,40.891119 73.758692,44.890299 c 3.917136,0.939706 6.079593,2.266954 9.626499,5.908424 l 4.574498,4.696467 -0.887794,-3.951308 C 84.021475,37.967479 72.732297,28.995298 58.755882,29.039471 c -11.239533,0.03552 -20.479527,5.657303 -25.418929,15.465341 -2.867786,5.694488 -3.75223,15.966294 -1.933945,22.460572 2.250655,8.038551 9.474522,15.773701 17.358686,18.587284 4.09438,1.46114 16.668262,1.824999 18.693785,0.54096 z m 6.352641,-6.440123 c 7.100056,-2.532196 10.691827,-7.71558 10.691827,-15.429653 0,-8.830372 -6.807751,-15.477634 -15.851322,-15.477634 -5.087902,0 -9.025841,1.996669 -12.234338,6.203227 -4.910077,6.437442 -4.496949,14.119932 1.091969,20.306196 4.902679,5.426681 9.750282,6.734451 16.301864,4.397864 z"
       id="path621" />
  </g>
</svg>
