<svg xmlns="http://www.w3.org/2000/svg" width="162.6" height="157.7"><path d="M69 120c-24-4-42-22-46-46-2-15 4-31 15-43a52 52 0 0 1 89 37 52 52 0 0 1-58 52zm18-6c21-6 36-25 35-47 0-20-13-38-33-45-7-2-20-2-28 0l-6 2h6c12 2 23 9 28 20 2 4 3 7 3 14 0 8-1 10-3 14a33 33 0 0 1-52 11c-3-2-6-7-7-9-2-4-3-4-3-2 1 17 17 37 36 42 6 2 17 2 24 0zM67 86c1 0 1-1-2-1-5-1-11-6-14-11-7-16 6-33 23-29 4 1 6 2 9 6l5 4-1-3c-3-14-14-23-28-23-11 0-21 6-26 16-3 5-3 15-2 22 3 8 10 16 18 19h18zm7-6c7-3 10-8 10-16 0-9-6-15-15-15-5 0-9 2-13 6-4 6-4 14 2 20 4 6 9 7 16 5z" style="fill:#000;stroke-width:.979592"/></svg>